<svg width="23" height="29" viewBox="0 0 23 29" fill="none" xmlns="http://www.w3.org/2000/svg">
<path d="M10.0625 15.95H12.9375V8.7H10.0625V15.95ZM11.5 20.3C11.9073 20.3 12.2487 20.161 12.5242 19.8831C12.7997 19.6052 12.9375 19.2608 12.9375 18.85C12.9375 18.4392 12.7997 18.0948 12.5242 17.8169C12.2487 17.539 11.9073 17.4 11.5 17.4C11.0927 17.4 10.7513 17.539 10.4758 17.8169C10.2003 18.0948 10.0625 18.4392 10.0625 18.85C10.0625 19.2608 10.2003 19.6052 10.4758 19.8831C10.7513 20.161 11.0927 20.3 11.5 20.3ZM0 24.65V21.75H2.875V11.6C2.875 9.59417 3.47396 7.81187 4.67188 6.25312C5.86979 4.69438 7.42708 3.67333 9.34375 3.19V2.175C9.34375 1.57083 9.55338 1.05729 9.97266 0.634375C10.3919 0.211458 10.901 0 11.5 0C12.099 0 12.6081 0.211458 13.0273 0.634375C13.4466 1.05729 13.6562 1.57083 13.6562 2.175V3.19C15.5729 3.67333 17.1302 4.69438 18.3281 6.25312C19.526 7.81187 20.125 9.59417 20.125 11.6V21.75H23V24.65H0ZM11.5 29C10.7094 29 10.0326 28.716 9.46953 28.1481C8.90651 27.5802 8.625 26.8975 8.625 26.1H14.375C14.375 26.8975 14.0935 27.5802 13.5305 28.1481C12.9674 28.716 12.2906 29 11.5 29ZM5.75 21.75H17.25V11.6C17.25 10.005 16.687 8.63958 15.5609 7.50375C14.4349 6.36792 13.0813 5.8 11.5 5.8C9.91875 5.8 8.5651 6.36792 7.43906 7.50375C6.31302 8.63958 5.75 10.005 5.75 11.6V21.75Z" fill="#CE7B00"/>
</svg>
